<svg aria-hidden="true" style="width:0;height:0;position:absolute;overflow:hidden" xmlns="http://www.w3.org/2000/svg"><defs><symbol id="logo-icon" viewBox="0 0 338 38"><path d="M183.016 115.347h-10.362v-6.107h28.217v6.107h-10.362v26.275h-7.493v-26.275Zm24.954 4.672c.863-1.203 2.02-2.113 3.469-2.73 1.48-.616 3.176-.925 5.088-.925v6.662a25.858 25.858 0 0 0-1.619-.093c-2.066 0-3.685.586-4.857 1.758-1.172 1.141-1.758 2.868-1.758 5.181v11.75h-7.216v-24.888h6.893v3.285Zm35.326-3.285v24.888h-6.847v-2.961a9.827 9.827 0 0 1-3.423 2.498c-1.326.555-2.76.833-4.302.833-3.269 0-5.859-.941-7.771-2.822-1.912-1.881-2.868-4.672-2.868-8.373v-14.063h7.216v12.999c0 4.009 1.681 6.014 5.042 6.014 1.727 0 3.115-.555 4.164-1.666 1.048-1.141 1.572-2.821 1.572-5.042v-12.305h7.217Zm12.283 25.258c-2.067 0-4.087-.247-6.06-.74-1.974-.525-3.547-1.172-4.719-1.943l2.406-5.181c1.11.709 2.451 1.295 4.024 1.757 1.573.432 3.115.648 4.626.648 3.053 0 4.58-.755 4.58-2.267 0-.709-.417-1.218-1.249-1.526-.833-.308-2.113-.571-3.84-.787-2.035-.308-3.716-.663-5.042-1.063a7.992 7.992 0 0 1-3.469-2.128c-.956-1.018-1.434-2.467-1.434-4.349 0-1.572.447-2.96 1.341-4.163.925-1.234 2.251-2.19 3.978-2.868 1.758-.678 3.824-1.018 6.199-1.018 1.758 0 3.5.201 5.227.602 1.758.37 3.208.894 4.349 1.572l-2.406 5.135c-2.189-1.233-4.579-1.85-7.17-1.85-1.542 0-2.698.216-3.469.647-.771.432-1.157.987-1.157 1.666 0 .771.417 1.31 1.249 1.619.833.308 2.159.601 3.978.879 2.036.339 3.701.709 4.996 1.11 1.296.37 2.421 1.064 3.377 2.082.956 1.017 1.434 2.436 1.434 4.255 0 1.542-.462 2.915-1.387 4.117-.926 1.203-2.283 2.144-4.071 2.822-1.758.648-3.855.972-6.291.972Zm29.478-1.573c-.709.524-1.588.925-2.637 1.203-1.017.246-2.097.37-3.238.37-2.96 0-5.258-.756-6.892-2.267-1.604-1.511-2.406-3.732-2.406-6.661v-10.223h-3.839v-5.552h3.839v-6.059h7.216v6.059h6.199v5.552H277.1v10.13c0 1.049.263 1.866.787 2.452.555.555 1.326.833 2.313.833 1.141 0 2.112-.309 2.914-.926l1.943 5.089Zm61.051-31.179-10.593 32.382h-8.049l-7.124-21.927-7.355 21.927h-8.003l-10.639-32.382h7.771l7.309 22.76 7.633-22.76h6.938l7.402 22.945 7.54-22.945h7.17Zm9.085 7.124c3.855 0 6.816.925 8.882 2.776 2.066 1.819 3.099 4.579 3.099 8.28v14.202h-6.754v-3.1c-1.356 2.313-3.885 3.47-7.586 3.47-1.912 0-3.577-.324-4.996-.972-1.388-.647-2.452-1.542-3.192-2.683-.74-1.141-1.11-2.436-1.11-3.886 0-2.312.864-4.132 2.591-5.458 1.757-1.326 4.456-1.989 8.095-1.989h5.736c0-1.573-.478-2.776-1.434-3.608-.956-.864-2.39-1.296-4.302-1.296-1.326 0-2.637.216-3.932.648-1.265.401-2.344.956-3.238 1.665l-2.591-5.042c1.357-.956 2.976-1.696 4.857-2.22a22.09 22.09 0 0 1 5.875-.787Zm-.555 20.77c1.234 0 2.329-.277 3.285-.832.956-.586 1.634-1.434 2.035-2.544v-2.545h-4.95c-2.96 0-4.441.972-4.441 2.915 0 .925.355 1.665 1.064 2.22.74.524 1.743.786 3.007.786Zm16.292-29.836h7.216v34.324h-7.216v-34.324Zm11.138 0h7.217v34.324h-7.217v-34.324Zm35.517 21.972c0 .093-.046.741-.139 1.943h-18.827c.339 1.542 1.141 2.76 2.405 3.655 1.265.894 2.837 1.341 4.719 1.341 1.295 0 2.436-.185 3.423-.555 1.017-.401 1.958-1.017 2.821-1.85l3.84 4.163c-2.344 2.683-5.767 4.025-10.269 4.025-2.807 0-5.289-.54-7.448-1.619-2.159-1.111-3.824-2.637-4.996-4.58-1.172-1.943-1.758-4.148-1.758-6.615 0-2.436.571-4.626 1.712-6.569a12.148 12.148 0 0 1 4.764-4.579c2.036-1.111 4.302-1.666 6.8-1.666 2.437 0 4.642.525 6.615 1.573 1.974 1.049 3.516 2.56 4.626 4.533 1.141 1.943 1.712 4.21 1.712 6.8Zm-12.906-7.447c-1.635 0-3.007.462-4.117 1.388-1.111.925-1.789 2.189-2.036 3.793h12.259c-.247-1.573-.925-2.822-2.036-3.747-1.11-.956-2.467-1.434-4.07-1.434Zm30.986 18.596c-.709.524-1.588.925-2.636 1.203-1.018.246-2.097.37-3.238.37-2.961 0-5.258-.756-6.893-2.267-1.604-1.511-2.405-3.732-2.405-6.661v-10.223h-3.84v-5.552h3.84v-6.059h7.216v6.059h6.199v5.552h-6.199v10.13c0 1.049.262 1.866.786 2.452.555.555 1.326.833 2.313.833 1.141 0 2.113-.309 2.915-.926l1.942 5.089Z" fill="#fff"/><rect x="56" y="77" width="96.451" height="96.451" rx="32.548" fill="#fff"/><path d="M57 125.5C57 99.266 78.266 78 104.5 78S152 99.266 152 125.5 130.734 173 104.5 173 57 151.734 57 125.5Z" fill="#fff"/><path d="M104.528 97.111c9.585 8.006 20.577 7.512 23.718 7.512-.687 45.528-5.922 36.5-23.718 49.266-17.797-12.766-22.998-3.738-23.685-49.266 3.108 0 14.1.494 23.685-7.512Z" stroke="#3375BB" stroke-width="6.063" stroke-miterlimit="10" stroke-linecap="round" stroke-linejoin="round" fill="#fff"/></symbol><symbol id="credit-card-icon" viewBox="0 0 48 48"><path fill="#0d65c6" d="M7 40q-1.2 0-2.1-.9Q4 38.2 4 37V11q0-1.2.9-2.1Q5.8 8 7 8h34q1.2 0 2.1.9.9.9.9 2.1v26q0 1.2-.9 2.1-.9.9-2.1.9Zm0-17.1h34v-6.45H7Z"/></symbol><symbol id="swap-hotizontal-icon" viewBox="0 0 48 48"><path fill="#0d65c6" d="M13.65 40 4 30.35l9.65-9.65 2.1 2.1-6.05 6.05h15.8v3H9.7l6.05 6.05Zm20.7-12.7-2.1-2.1 6.05-6.05H22.5v-3h15.8l-6.05-6.05 2.1-2.1L44 17.65Z"/></symbol><symbol id="lock-icon" viewBox="0 0 48 48"><path fill="#0d65c6" d="M11 44q-1.25 0-2.125-.875T8 41V19.3q0-1.25.875-2.125T11 16.3h3.5v-4.8q0-3.95 2.775-6.725Q20.05 2 24 2q3.95 0 6.725 2.775Q33.5 7.55 33.5 11.5v4.8H37q1.25 0 2.125.875T40 19.3V41q0 1.25-.875 2.125T37 44Zm13-10q1.6 0 2.725-1.1t1.125-2.65q0-1.5-1.125-2.725T24 26.3q-1.6 0-2.725 1.225T20.15 30.25q0 1.55 1.125 2.65Q22.4 34 24 34Zm-6.5-17.7h13v-4.8q0-2.7-1.9-4.6Q26.7 5 24 5q-2.7 0-4.6 1.9-1.9 1.9-1.9 4.6Z"/></symbol><symbol id="facebook-icon" viewBox="0 0 50 50"><path d="M41 4H9C6.24 4 4 6.24 4 9v32c0 2.76 2.24 5 5 5h32c2.76 0 5-2.24 5-5V9c0-2.76-2.24-5-5-5zm-4 15h-2c-2.14 0-3 .5-3 2v3h5l-1 5h-4v15h-5V29h-4v-5h4v-3c0-4 2-7 6-7 2.9 0 4 1 4 1v4z" fill="#5a749a"/></symbol><symbol id="github-icon" viewBox="0 0 30 30"><path d="M15 3C8.373 3 3 8.373 3 15c0 5.623 3.872 10.328 9.092 11.63a1.751 1.751 0 0 1-.092-.583v-2.051h-1.508c-.821 0-1.551-.353-1.905-1.009-.393-.729-.461-1.844-1.435-2.526-.289-.227-.069-.486.264-.451.615.174 1.125.596 1.605 1.222.478.627.703.769 1.596.769.433 0 1.081-.025 1.691-.121.328-.833.895-1.6 1.588-1.962-3.996-.411-5.903-2.399-5.903-5.098 0-1.162.495-2.286 1.336-3.233-.276-.94-.623-2.857.106-3.587 1.798 0 2.885 1.166 3.146 1.481A8.993 8.993 0 0 1 15.495 9c1.036 0 2.024.174 2.922.483C18.675 9.17 19.763 8 21.565 8c.732.731.381 2.656.102 3.594.836.945 1.328 2.066 1.328 3.226 0 2.697-1.904 4.684-5.894 5.097C18.199 20.49 19 22.1 19 23.313v2.734c0 .104-.023.179-.035.268C23.641 24.676 27 20.236 27 15c0-6.627-5.373-12-12-12z" fill="#5a749a"/></symbol><symbol id="instagram-icon" viewBox="0 0 50 50"><path d="M16 3C8.832 3 3 8.832 3 16v18c0 7.168 5.832 13 13 13h18c7.168 0 13-5.832 13-13V16c0-7.168-5.832-13-13-13H16zm0 2h18c6.086 0 11 4.914 11 11v18c0 6.086-4.914 11-11 11H16C9.914 45 5 40.086 5 34V16C5 9.914 9.914 5 16 5zm21 6a2 2 0 0 0-2 2 2 2 0 0 0 2 2 2 2 0 0 0 2-2 2 2 0 0 0-2-2zm-12 3c-6.063 0-11 4.937-11 11s4.937 11 11 11 11-4.937 11-11-4.937-11-11-11zm0 2c4.982 0 9 4.018 9 9s-4.018 9-9 9-9-4.018-9-9 4.018-9 9-9z" fill="#5a749a"/></symbol><symbol id="twitter-icon" viewBox="0 0 30 30"><path d="M28 6.937c-.957.425-1.985.711-3.064.84a5.343 5.343 0 0 0 2.345-2.951 10.696 10.696 0 0 1-3.388 1.295 5.334 5.334 0 0 0-9.089 4.864A15.143 15.143 0 0 1 3.809 5.411a5.321 5.321 0 0 0-.721 2.683 5.33 5.33 0 0 0 2.372 4.439 5.323 5.323 0 0 1-2.416-.667v.067a5.335 5.335 0 0 0 4.279 5.23 5.336 5.336 0 0 1-2.409.092 5.34 5.34 0 0 0 4.983 3.705 10.699 10.699 0 0 1-6.625 2.284c-.43 0-.855-.025-1.273-.075a15.102 15.102 0 0 0 8.177 2.396c9.812 0 15.176-8.128 15.176-15.177 0-.231-.005-.461-.015-.69A10.855 10.855 0 0 0 28 6.937z" fill="#5a749a"/></symbol><symbol id="telegram-icon" viewBox="0 0 50 50"><path d="M46.137 6.552c-.75-.636-1.928-.727-3.146-.238h-.002c-1.281.514-36.261 15.518-37.685 16.131-.259.09-2.521.934-2.288 2.814.208 1.695 2.026 2.397 2.248 2.478l8.893 3.045c.59 1.964 2.765 9.21 3.246 10.758.3.965.789 2.233 1.646 2.494.752.29 1.5.025 1.984-.355l5.437-5.043 8.777 6.845.209.125c.596.264 1.167.396 1.712.396.421 0 .825-.079 1.211-.237 1.315-.54 1.841-1.793 1.896-1.935l6.556-34.077c.4-1.82-.156-2.746-.694-3.201zM22 32l-3 8-3-10 23-17-17 19z" fill="#5a749a"/></symbol></defs></svg>