<svg width="338" height="38" fill="none" xmlns="http://www.w3.org/2000/svg"><g clip-path="url('#clip0')"><path fill-rule="evenodd" clip-rule="evenodd" d="M1.294 6.484C0 9.025 0 12.35 0 19s0 9.975 1.294 12.516a11.91 11.91 0 0 0 5.19 5.19C9.025 38 12.35 38 19 38s9.975 0 12.516-1.294a11.91 11.91 0 0 0 5.19-5.19C38 28.975 38 25.65 38 19s0-9.975-1.294-12.516a11.91 11.91 0 0 0-5.19-5.19C28.975 0 25.65 0 19 0S9.025 0 6.484 1.294a11.91 11.91 0 0 0-5.19 5.19Zm27.188 3.764c.333 0 .647.137.879.368.232.238.362.558.356.885-.06 3.539-.196 6.246-.451 8.39-.25 2.143-.623 3.734-1.188 5.023a7.95 7.95 0 0 1-1.4 2.179c-.743.801-1.592 1.383-2.518 1.936-.396.236-.808.47-1.24.715-.921.524-1.935 1.1-3.083 1.867a1.228 1.228 0 0 1-1.371 0c-1.166-.777-2.193-1.36-3.123-1.887l-.606-.345c-1.087-.63-2.066-1.23-2.921-2.096a7.449 7.449 0 0 1-1.455-2.09c-.534-1.105-.897-2.44-1.164-4.168-.356-2.31-.534-5.332-.6-9.524a1.237 1.237 0 0 1 .35-.885 1.26 1.26 0 0 1 .886-.368h.51c1.574.006 5.047-.148 8.051-2.488a1.239 1.239 0 0 1 1.515 0c3.004 2.34 6.477 2.494 8.057 2.488h.516Zm-2.76 13.876c.385-.796.706-1.894.95-3.473.29-1.889.468-4.453.552-7.945-1.853-.053-5.035-.41-8.07-2.452-3.034 2.037-6.216 2.393-8.063 2.452.066 2.886.196 5.13.404 6.894.238 2.007.576 3.366.998 4.322a5.28 5.28 0 0 0 .955 1.496c.493.54 1.117.986 1.966 1.497.352.211.74.43 1.163.67a55.53 55.53 0 0 1 2.577 1.527c.945-.603 1.795-1.086 2.539-1.509l.644-.368c1.045-.6 1.817-1.098 2.393-1.68.386-.398.7-.831.991-1.43Z" fill="#3375BB"/></g><path d="M53.332 15.208h-4.256V12.7h11.59v2.508H56.41V26h-3.078V15.208Zm10.82 1.919c.354-.494.83-.868 1.424-1.121.609-.253 1.305-.38 2.09-.38v2.736c-.329-.025-.55-.038-.665-.038-.848 0-1.513.24-1.995.722-.48.469-.722 1.178-.722 2.128V26H61.32V15.778h2.831v1.349Zm15.08-1.349V26h-2.813v-1.216a4.035 4.035 0 0 1-1.406 1.026 4.53 4.53 0 0 1-1.767.342c-1.343 0-2.407-.386-3.192-1.159-.785-.773-1.178-1.919-1.178-3.439v-5.776h2.964v5.339c0 1.647.69 2.47 2.071 2.47.71 0 1.28-.228 1.71-.684.43-.469.646-1.159.646-2.071v-5.054h2.964Zm5.614 10.374c-.849 0-1.678-.101-2.489-.304-.81-.215-1.457-.481-1.938-.798l.988-2.128c.456.291 1.007.532 1.653.722a7.16 7.16 0 0 0 1.9.266c1.254 0 1.881-.31 1.881-.931 0-.291-.171-.5-.513-.627-.342-.127-.868-.234-1.577-.323-.836-.127-1.526-.272-2.071-.437a3.28 3.28 0 0 1-1.425-.874c-.393-.418-.589-1.013-.589-1.786 0-.646.184-1.216.551-1.71.38-.507.925-.9 1.634-1.178.722-.279 1.57-.418 2.546-.418.722 0 1.438.082 2.147.247.722.152 1.317.367 1.786.646l-.988 2.109a5.898 5.898 0 0 0-2.945-.76c-.633 0-1.108.089-1.425.266-.317.177-.475.405-.475.684 0 .317.171.538.513.665.342.127.887.247 1.634.361.836.14 1.52.291 2.052.456a3.01 3.01 0 0 1 1.387.855c.393.418.589 1 .589 1.748a2.7 2.7 0 0 1-.57 1.691c-.38.494-.937.88-1.672 1.159-.722.266-1.583.399-2.584.399Zm12.678-.646c-.291.215-.653.38-1.083.494a5.631 5.631 0 0 1-1.33.152c-1.216 0-2.16-.31-2.831-.931-.659-.62-.988-1.533-.988-2.736v-4.199h-1.577v-2.28h1.577v-2.489h2.964v2.489h2.546v2.28h-2.546v4.161c0 .43.108.766.323 1.007.228.228.545.342.95.342.469 0 .868-.127 1.197-.38l.798 2.09ZM123.739 12.7 119.388 26h-3.306l-2.926-9.006L110.135 26h-3.287l-4.37-13.3h3.192l3.002 9.348 3.135-9.348h2.85l3.04 9.424 3.097-9.424h2.945Zm4.302 2.926c1.583 0 2.799.38 3.648 1.14.849.747 1.273 1.881 1.273 3.401V26h-2.774v-1.273c-.557.95-1.596 1.425-3.116 1.425-.785 0-1.469-.133-2.052-.399-.57-.266-1.007-.633-1.311-1.102-.304-.469-.456-1-.456-1.596 0-.95.355-1.697 1.064-2.242.722-.545 1.83-.817 3.325-.817h2.356c0-.646-.196-1.14-.589-1.482-.393-.355-.982-.532-1.767-.532-.545 0-1.083.089-1.615.266a4.122 4.122 0 0 0-1.33.684l-1.064-2.071c.557-.393 1.222-.697 1.995-.912a9.085 9.085 0 0 1 2.413-.323Zm-.228 8.531c.507 0 .956-.114 1.349-.342.393-.24.671-.589.836-1.045v-1.045h-2.033c-1.216 0-1.824.399-1.824 1.197 0 .38.146.684.437.912.304.215.716.323 1.235.323Zm7.262-12.255h2.964V26h-2.964V11.902Zm5.144 0h2.964V26h-2.964V11.902Zm15.158 9.025c0 .038-.019.304-.057.798h-7.733c.14.633.469 1.134.988 1.501.52.367 1.166.551 1.938.551.532 0 1.001-.076 1.406-.228a3.524 3.524 0 0 0 1.159-.76l1.577 1.71c-.962 1.102-2.368 1.653-4.218 1.653-1.152 0-2.172-.222-3.059-.665-.886-.456-1.57-1.083-2.052-1.881-.481-.798-.722-1.704-.722-2.717 0-1 .235-1.9.703-2.698a4.994 4.994 0 0 1 1.957-1.881c.836-.456 1.767-.684 2.793-.684 1.001 0 1.907.215 2.717.646a4.635 4.635 0 0 1 1.9 1.862c.469.798.703 1.729.703 2.793Zm-5.301-3.059c-.671 0-1.235.19-1.691.57-.456.38-.734.9-.836 1.558h5.035c-.101-.646-.38-1.159-.836-1.539-.456-.393-1.013-.589-1.672-.589Zm13.298 7.638a3.18 3.18 0 0 1-1.083.494 5.636 5.636 0 0 1-1.33.152c-1.216 0-2.16-.31-2.831-.931-.659-.62-.988-1.533-.988-2.736v-4.199h-1.577v-2.28h1.577v-2.489h2.964v2.489h2.546v2.28h-2.546v4.161c0 .43.107.766.323 1.007.228.228.544.342.95.342.468 0 .867-.127 1.197-.38l.798 2.09Z" fill="#3375BB"/><g clip-path="url('#clip1')"><path fill-rule="evenodd" clip-rule="evenodd" d="M170.294 6.484C169 9.025 169 12.35 169 19s0 9.975 1.294 12.516a11.908 11.908 0 0 0 5.19 5.19C178.025 38 181.35 38 188 38s9.975 0 12.516-1.294a11.908 11.908 0 0 0 5.19-5.19C207 28.975 207 25.65 207 19s0-9.975-1.294-12.516a11.908 11.908 0 0 0-5.19-5.19C197.975 0 194.65 0 188 0s-9.975 0-12.516 1.294a11.908 11.908 0 0 0-5.19 5.19Zm27.188 3.764c.333 0 .647.137.879.368.232.238.362.558.356.885-.059 3.539-.196 6.246-.451 8.39-.249 2.143-.623 3.734-1.187 5.023-.38.86-.85 1.573-1.402 2.179-.742.801-1.591 1.383-2.517 1.936-.396.236-.808.47-1.24.715-.921.524-1.935 1.1-3.083 1.867a1.227 1.227 0 0 1-1.371 0c-1.166-.777-2.193-1.36-3.123-1.887l-.606-.345c-1.087-.63-2.066-1.23-2.921-2.096a7.452 7.452 0 0 1-1.455-2.09c-.534-1.105-.897-2.44-1.164-4.168-.356-2.31-.534-5.332-.599-9.524a1.235 1.235 0 0 1 .35-.885c.231-.231.552-.368.885-.368h.51c1.574.006 5.047-.148 8.051-2.488a1.24 1.24 0 0 1 1.515 0c3.004 2.34 6.477 2.494 8.057 2.488h.516Zm-2.761 13.876c.386-.796.707-1.894.95-3.473.291-1.889.469-4.453.553-7.945-1.853-.053-5.035-.41-8.07-2.452-3.034 2.037-6.216 2.393-8.063 2.452.066 2.886.196 5.13.404 6.894.238 2.007.576 3.366.998 4.322.279.636.587 1.093.956 1.496.492.54 1.116.986 1.965 1.497.352.211.74.43 1.163.67.753.426 1.615.914 2.577 1.527.945-.603 1.795-1.086 2.539-1.509l.644-.368c1.045-.6 1.817-1.098 2.393-1.68.386-.398.7-.831.991-1.43Z" fill="#fff"/></g><path d="M221.887 15.208h-4.256V12.7h11.59v2.508h-4.256V26h-3.078V15.208Zm10.819 1.919c.355-.494.83-.868 1.425-1.121.608-.253 1.305-.38 2.09-.38v2.736a10.711 10.711 0 0 0-.665-.038c-.849 0-1.514.24-1.995.722-.481.469-.722 1.178-.722 2.128V26h-2.964V15.778h2.831v1.349Zm15.08-1.349V26h-2.812v-1.216a4.044 4.044 0 0 1-1.406 1.026 4.532 4.532 0 0 1-1.767.342c-1.343 0-2.407-.386-3.192-1.159-.786-.773-1.178-1.919-1.178-3.439v-5.776h2.964v5.339c0 1.647.69 2.47 2.071 2.47.709 0 1.279-.228 1.71-.684.43-.469.646-1.159.646-2.071v-5.054h2.964Zm5.615 10.374c-.849 0-1.679-.101-2.489-.304-.811-.215-1.457-.481-1.938-.798l.988-2.128c.456.291 1.007.532 1.653.722a7.158 7.158 0 0 0 1.9.266c1.254 0 1.881-.31 1.881-.931 0-.291-.171-.5-.513-.627-.342-.127-.868-.234-1.577-.323-.836-.127-1.527-.272-2.071-.437a3.276 3.276 0 0 1-1.425-.874c-.393-.418-.589-1.013-.589-1.786 0-.646.183-1.216.551-1.71.38-.507.924-.9 1.634-1.178.722-.279 1.57-.418 2.546-.418.722 0 1.437.082 2.147.247.722.152 1.317.367 1.786.646l-.988 2.109a5.9 5.9 0 0 0-2.945-.76c-.634 0-1.109.089-1.425.266-.317.177-.475.405-.475.684 0 .317.171.538.513.665.342.127.886.247 1.634.361.836.14 1.52.291 2.052.456.532.152.994.437 1.387.855.392.418.589 1 .589 1.748a2.7 2.7 0 0 1-.57 1.691c-.38.494-.938.88-1.672 1.159-.722.266-1.584.399-2.584.399Zm12.677-.646c-.291.215-.652.38-1.083.494a5.63 5.63 0 0 1-1.33.152c-1.216 0-2.159-.31-2.831-.931-.658-.62-.988-1.533-.988-2.736v-4.199h-1.577v-2.28h1.577v-2.489h2.964v2.489h2.546v2.28h-2.546v4.161c0 .43.108.766.323 1.007.228.228.545.342.95.342.469 0 .868-.127 1.197-.38l.798 2.09ZM292.294 12.7 287.943 26h-3.306l-2.926-9.006L278.69 26h-3.287l-4.37-13.3h3.192l3.002 9.348 3.135-9.348h2.85l3.04 9.424 3.097-9.424h2.945Zm4.302 2.926c1.583 0 2.799.38 3.648 1.14.848.747 1.273 1.881 1.273 3.401V26h-2.774v-1.273c-.558.95-1.596 1.425-3.116 1.425-.786 0-1.47-.133-2.052-.399-.57-.266-1.007-.633-1.311-1.102-.304-.469-.456-1-.456-1.596 0-.95.354-1.697 1.064-2.242.722-.545 1.83-.817 3.325-.817h2.356c0-.646-.197-1.14-.589-1.482-.393-.355-.982-.532-1.767-.532-.545 0-1.083.089-1.615.266-.52.165-.963.393-1.33.684l-1.064-2.071c.557-.393 1.222-.697 1.995-.912a9.08 9.08 0 0 1 2.413-.323Zm-.228 8.531a2.64 2.64 0 0 0 1.349-.342c.392-.24.671-.589.836-1.045v-1.045h-2.033c-1.216 0-1.824.399-1.824 1.197 0 .38.145.684.437.912.304.215.715.323 1.235.323Zm7.261-12.255h2.964V26h-2.964V11.902Zm5.145 0h2.964V26h-2.964V11.902Zm15.158 9.025c0 .038-.019.304-.057.798h-7.733c.139.633.469 1.134.988 1.501s1.165.551 1.938.551c.532 0 1.001-.076 1.406-.228a3.535 3.535 0 0 0 1.159-.76l1.577 1.71c-.963 1.102-2.369 1.653-4.218 1.653-1.153 0-2.172-.222-3.059-.665-.887-.456-1.571-1.083-2.052-1.881-.481-.798-.722-1.704-.722-2.717 0-1 .234-1.9.703-2.698a4.988 4.988 0 0 1 1.957-1.881c.836-.456 1.767-.684 2.793-.684 1.001 0 1.906.215 2.717.646a4.635 4.635 0 0 1 1.9 1.862c.469.798.703 1.729.703 2.793Zm-5.301-3.059c-.671 0-1.235.19-1.691.57-.456.38-.735.9-.836 1.558h5.035c-.101-.646-.38-1.159-.836-1.539-.456-.393-1.013-.589-1.672-.589Zm13.297 7.638c-.291.215-.652.38-1.083.494a5.63 5.63 0 0 1-1.33.152c-1.216 0-2.159-.31-2.831-.931-.658-.62-.988-1.533-.988-2.736v-4.199h-1.577v-2.28h1.577v-2.489h2.964v2.489h2.546v2.28h-2.546v4.161c0 .43.108.766.323 1.007.228.228.545.342.95.342.469 0 .868-.127 1.197-.38l.798 2.09Z" fill="#fff"/><defs><clipPath id="clip0"><path fill="#fff" d="M0 0h38v38H0z"/></clipPath><clipPath id="clip1"><path fill="#fff" transform="translate(169)" d="M0 0h38v38H0z"/></clipPath></defs></svg>