<svg aria-hidden="true" style="position:absolute;width:0;height:0;overflow:hidden" xmlns="http://www.w3.org/2000/svg">
  <defs>
    <symbol id="logo-icon" viewBox="0 0 338 38">
      <path d="M183.016 115.347H172.654V109.24H200.871V115.347H190.509V141.622H183.016V115.347ZM207.97 120.019C208.833 118.816 209.99 117.906 211.439 117.289C212.919 116.673 214.615 116.364 216.527 116.364V123.026C215.726 122.964 215.186 122.933 214.908 122.933C212.842 122.933 211.223 123.519 210.051 124.691C208.879 125.832 208.293 127.559 208.293 129.872V141.622H201.077V116.734H207.97V120.019ZM243.296 116.734V141.622H236.449V138.661C235.493 139.74 234.352 140.573 233.026 141.159C231.7 141.714 230.266 141.992 228.724 141.992C225.455 141.992 222.865 141.051 220.953 139.17C219.041 137.289 218.085 134.498 218.085 130.797V116.734H225.301V129.733C225.301 133.742 226.982 135.747 230.343 135.747C232.07 135.747 233.458 135.192 234.507 134.081C235.555 132.94 236.079 131.26 236.079 129.039V116.734H243.296ZM255.579 141.992C253.512 141.992 251.492 141.745 249.519 141.252C247.545 140.727 245.972 140.08 244.8 139.309L247.206 134.128C248.316 134.837 249.657 135.423 251.23 135.885C252.803 136.317 254.345 136.533 255.856 136.533C258.909 136.533 260.436 135.778 260.436 134.266C260.436 133.557 260.019 133.048 259.187 132.74C258.354 132.432 257.074 132.169 255.347 131.953C253.312 131.645 251.631 131.29 250.305 130.89C248.979 130.489 247.823 129.779 246.836 128.762C245.88 127.744 245.402 126.295 245.402 124.413C245.402 122.841 245.849 121.453 246.743 120.25C247.668 119.016 248.994 118.06 250.721 117.382C252.479 116.704 254.545 116.364 256.92 116.364C258.678 116.364 260.42 116.565 262.147 116.966C263.905 117.336 265.355 117.86 266.496 118.538L264.09 123.673C261.901 122.44 259.511 121.823 256.92 121.823C255.378 121.823 254.222 122.039 253.451 122.47C252.68 122.902 252.294 123.457 252.294 124.136C252.294 124.907 252.711 125.446 253.543 125.755C254.376 126.063 255.702 126.356 257.521 126.634C259.557 126.973 261.222 127.343 262.517 127.744C263.813 128.114 264.938 128.808 265.894 129.826C266.85 130.843 267.328 132.262 267.328 134.081C267.328 135.623 266.866 136.996 265.941 138.198C265.015 139.401 263.658 140.342 261.87 141.02C260.112 141.668 258.015 141.992 255.579 141.992ZM285.057 140.419C284.348 140.943 283.469 141.344 282.42 141.622C281.403 141.868 280.323 141.992 279.182 141.992C276.222 141.992 273.924 141.236 272.29 139.725C270.686 138.214 269.884 135.993 269.884 133.064V122.841H266.045V117.289H269.884V111.23H277.1V117.289H283.299V122.841H277.1V132.971C277.1 134.02 277.363 134.837 277.887 135.423C278.442 135.978 279.213 136.256 280.2 136.256C281.341 136.256 282.312 135.947 283.114 135.33L285.057 140.419ZM346.108 109.24L335.515 141.622H327.466L320.342 119.695L312.987 141.622H304.984L294.345 109.24H302.116L309.425 132L317.058 109.24H323.996L331.398 132.185L338.938 109.24H346.108ZM355.193 116.364C359.048 116.364 362.009 117.289 364.075 119.14C366.141 120.959 367.174 123.719 367.174 127.42V141.622H360.42V138.522C359.064 140.835 356.535 141.992 352.834 141.992C350.922 141.992 349.257 141.668 347.838 141.02C346.45 140.373 345.386 139.478 344.646 138.337C343.906 137.196 343.536 135.901 343.536 134.451C343.536 132.139 344.4 130.319 346.127 128.993C347.884 127.667 350.583 127.004 354.222 127.004H359.958C359.958 125.431 359.48 124.228 358.524 123.396C357.568 122.532 356.134 122.1 354.222 122.1C352.896 122.1 351.585 122.316 350.29 122.748C349.025 123.149 347.946 123.704 347.052 124.413L344.461 119.371C345.818 118.415 347.437 117.675 349.318 117.151C351.23 116.626 353.189 116.364 355.193 116.364ZM354.638 137.134C355.872 137.134 356.967 136.857 357.923 136.302C358.879 135.716 359.557 134.868 359.958 133.758V131.213H355.008C352.048 131.213 350.567 132.185 350.567 134.128C350.567 135.053 350.922 135.793 351.631 136.348C352.371 136.872 353.374 137.134 354.638 137.134ZM370.93 107.298H378.146V141.622H370.93V107.298ZM382.068 107.298H389.285V141.622H382.068V107.298ZM417.585 129.27C417.585 129.363 417.539 130.011 417.446 131.213H398.619C398.958 132.755 399.76 133.973 401.024 134.868C402.289 135.762 403.861 136.209 405.743 136.209C407.038 136.209 408.179 136.024 409.166 135.654C410.183 135.253 411.124 134.637 411.987 133.804L415.827 137.967C413.483 140.65 410.06 141.992 405.558 141.992C402.751 141.992 400.269 141.452 398.11 140.373C395.951 139.262 394.286 137.736 393.114 135.793C391.942 133.85 391.356 131.645 391.356 129.178C391.356 126.742 391.927 124.552 393.068 122.609C394.24 120.636 395.828 119.109 397.832 118.03C399.868 116.919 402.134 116.364 404.632 116.364C407.069 116.364 409.274 116.889 411.247 117.937C413.221 118.986 414.763 120.497 415.873 122.47C417.014 124.413 417.585 126.68 417.585 129.27ZM404.679 121.823C403.044 121.823 401.672 122.285 400.562 123.211C399.451 124.136 398.773 125.4 398.526 127.004H410.785C410.538 125.431 409.86 124.182 408.749 123.257C407.639 122.301 406.282 121.823 404.679 121.823ZM435.665 140.419C434.956 140.943 434.077 141.344 433.029 141.622C432.011 141.868 430.932 141.992 429.791 141.992C426.83 141.992 424.533 141.236 422.898 139.725C421.294 138.214 420.493 135.993 420.493 133.064V122.841H416.653V117.289H420.493V111.23H427.709V117.289H433.908V122.841H427.709V132.971C427.709 134.02 427.971 134.837 428.495 135.423C429.05 135.978 429.821 136.256 430.808 136.256C431.949 136.256 432.921 135.947 433.723 135.33L435.665 140.419Z" fill="white"/>
      <rect x="56" y="77" width="96.4505" height="96.4505" rx="32.5485" fill="white"/>
      <path d="M57 125.5C57 99.2665 78.2665 78 104.5 78C130.734 78 152 99.2665 152 125.5C152 151.734 130.734 173 104.5 173C78.2665 173 57 151.734 57 125.5Z" fill="white"/>
      <path d="M104.528 97.1113C114.113 105.117 125.105 104.623 128.246 104.623C127.559 150.151 122.324 141.123 104.528 153.889C86.7313 141.123 81.5298 150.151 80.8428 104.623C83.9506 104.623 94.9426 105.117 104.528 97.1113Z" stroke="#3375BB" stroke-width="6.06304" stroke-miterlimit="10" stroke-linecap="round" stroke-linejoin="round" fill="#fff"/>
    </symbol>

    <symbol id="credit-card-icon" viewBox="0 0 48 48">
    <path fill='#0d65c6' d="M7 40q-1.2 0-2.1-.9Q4 38.2 4 37V11q0-1.2.9-2.1Q5.8 8 7 8h34q1.2 0 2.1.9.9.9.9 2.1v26q0 1.2-.9 2.1-.9.9-2.1.9Zm0-17.1h34v-6.45H7Z"/>
    </symbol>

    <symbol id="swap-hotizontal-icon" viewBox="0 0 48 48">
    <path fill='#0d65c6' d="M13.65 40 4 30.35l9.65-9.65 2.1 2.1-6.05 6.05h15.8v3H9.7l6.05 6.05Zm20.7-12.7-2.1-2.1 6.05-6.05H22.5v-3h15.8l-6.05-6.05 2.1-2.1L44 17.65Z"/>
    </symbol>

    <symbol id="lock-icon" viewBox="0 0 48 48">
    <path fill='#0d65c6' d="M11 44q-1.25 0-2.125-.875T8 41V19.3q0-1.25.875-2.125T11 16.3h3.5v-4.8q0-3.95 2.775-6.725Q20.05 2 24 2q3.95 0 6.725 2.775Q33.5 7.55 33.5 11.5v4.8H37q1.25 0 2.125.875T40 19.3V41q0 1.25-.875 2.125T37 44Zm13-10q1.6 0 2.725-1.1t1.125-2.65q0-1.5-1.125-2.725T24 26.3q-1.6 0-2.725 1.225T20.15 30.25q0 1.55 1.125 2.65Q22.4 34 24 34Zm-6.5-17.7h13v-4.8q0-2.7-1.9-4.6Q26.7 5 24 5q-2.7 0-4.6 1.9-1.9 1.9-1.9 4.6Z"/>
    </symbol>
    
    <symbol id="facebook-icon" viewBox="0 0 50 50">
    <path d="M41,4H9C6.24,4,4,6.24,4,9v32c0,2.76,2.24,5,5,5h32c2.76,0,5-2.24,5-5V9C46,6.24,43.76,4,41,4z M37,19h-2c-2.14,0-3,0.5-3,2 v3h5l-1,5h-4v15h-5V29h-4v-5h4v-3c0-4,2-7,6-7c2.9,0,4,1,4,1V19z" fill="#5a749a"/>
    </symbol>

    <symbol id="github-icon" viewBox="0 0 30 30">
    <path d="M15,3C8.373,3,3,8.373,3,15c0,5.623,3.872,10.328,9.092,11.63C12.036,26.468,12,26.28,12,26.047v-2.051 c-0.487,0-1.303,0-1.508,0c-0.821,0-1.551-0.353-1.905-1.009c-0.393-0.729-0.461-1.844-1.435-2.526 c-0.289-0.227-0.069-0.486,0.264-0.451c0.615,0.174,1.125,0.596,1.605,1.222c0.478,0.627,0.703,0.769,1.596,0.769 c0.433,0,1.081-0.025,1.691-0.121c0.328-0.833,0.895-1.6,1.588-1.962c-3.996-0.411-5.903-2.399-5.903-5.098 c0-1.162,0.495-2.286,1.336-3.233C9.053,10.647,8.706,8.73,9.435,8c1.798,0,2.885,1.166,3.146,1.481C13.477,9.174,14.461,9,15.495,9 c1.036,0,2.024,0.174,2.922,0.483C18.675,9.17,19.763,8,21.565,8c0.732,0.731,0.381,2.656,0.102,3.594 c0.836,0.945,1.328,2.066,1.328,3.226c0,2.697-1.904,4.684-5.894,5.097C18.199,20.49,19,22.1,19,23.313v2.734 c0,0.104-0.023,0.179-0.035,0.268C23.641,24.676,27,20.236,27,15C27,8.373,21.627,3,15,3z" fill="#5a749a"/>
    </symbol>

    <symbol id="instagram-icon" viewBox="0 0 50 50">
    <path d="M 16 3 C 8.8324839 3 3 8.8324839 3 16 L 3 34 C 3 41.167516 8.8324839 47 16 47 L 34 47 C 41.167516 47 47 41.167516 47 34 L 47 16 C 47 8.8324839 41.167516 3 34 3 L 16 3 z M 16 5 L 34 5 C 40.086484 5 45 9.9135161 45 16 L 45 34 C 45 40.086484 40.086484 45 34 45 L 16 45 C 9.9135161 45 5 40.086484 5 34 L 5 16 C 5 9.9135161 9.9135161 5 16 5 z M 37 11 A 2 2 0 0 0 35 13 A 2 2 0 0 0 37 15 A 2 2 0 0 0 39 13 A 2 2 0 0 0 37 11 z M 25 14 C 18.936712 14 14 18.936712 14 25 C 14 31.063288 18.936712 36 25 36 C 31.063288 36 36 31.063288 36 25 C 36 18.936712 31.063288 14 25 14 z M 25 16 C 29.982407 16 34 20.017593 34 25 C 34 29.982407 29.982407 34 25 34 C 20.017593 34 16 29.982407 16 25 C 16 20.017593 20.017593 16 25 16 z" fill="#5a749a"/>
    </symbol>

    <symbol id="twitter-icon" viewBox="0 0 30 30">
    <path d="M28,6.937c-0.957,0.425-1.985,0.711-3.064,0.84c1.102-0.66,1.947-1.705,2.345-2.951c-1.03,0.611-2.172,1.055-3.388,1.295 c-0.973-1.037-2.359-1.685-3.893-1.685c-2.946,0-5.334,2.389-5.334,5.334c0,0.418,0.048,0.826,0.138,1.215 c-4.433-0.222-8.363-2.346-10.995-5.574C3.351,6.199,3.088,7.115,3.088,8.094c0,1.85,0.941,3.483,2.372,4.439 c-0.874-0.028-1.697-0.268-2.416-0.667c0,0.023,0,0.044,0,0.067c0,2.585,1.838,4.741,4.279,5.23 c-0.447,0.122-0.919,0.187-1.406,0.187c-0.343,0-0.678-0.034-1.003-0.095c0.679,2.119,2.649,3.662,4.983,3.705 c-1.825,1.431-4.125,2.284-6.625,2.284c-0.43,0-0.855-0.025-1.273-0.075c2.361,1.513,5.164,2.396,8.177,2.396 c9.812,0,15.176-8.128,15.176-15.177c0-0.231-0.005-0.461-0.015-0.69C26.38,8.945,27.285,8.006,28,6.937z" fill="#5a749a"/>
    </symbol>

    <symbol id="telegram-icon" viewBox="0 0 50 50">
    <path d="M46.137,6.552c-0.75-0.636-1.928-0.727-3.146-0.238l-0.002,0C41.708,6.828,6.728,21.832,5.304,22.445	c-0.259,0.09-2.521,0.934-2.288,2.814c0.208,1.695,2.026,2.397,2.248,2.478l8.893,3.045c0.59,1.964,2.765,9.21,3.246,10.758	c0.3,0.965,0.789,2.233,1.646,2.494c0.752,0.29,1.5,0.025,1.984-0.355l5.437-5.043l8.777,6.845l0.209,0.125	c0.596,0.264,1.167,0.396,1.712,0.396c0.421,0,0.825-0.079,1.211-0.237c1.315-0.54,1.841-1.793,1.896-1.935l6.556-34.077	C47.231,7.933,46.675,7.007,46.137,6.552z M22,32l-3,8l-3-10l23-17L22,32z" fill="#5a749a"/>
    </symbol>
    
  </defs>
</svg>